<?xml version="1.0" encoding="utf-8"?>
<!-- Generator: Adobe Illustrator 26.5.0, SVG Export Plug-In . SVG Version: 6.00 Build 0)  -->
<svg version="1.1" id="Layer_1" xmlns="http://www.w3.org/2000/svg" xmlns:xlink="http://www.w3.org/1999/xlink" x="0px" y="0px"
	 viewBox="0 0 300 300" style="enable-background:new 0 0 300 300;" xml:space="preserve">
<style type="text/css">
	.st0{fill:#FFFFFF;}
</style>
<path class="st0" d="M0,0v300h300V0H0z M258.59,143.35c-2.76,7.3-7.65,13.38-12.56,19.35c-13.21,16.04-28.13,30.42-43.8,43.98
	c-16.8,14.54-34.06,28.54-51.13,42.77c-0.33,0.28-0.69,0.52-1.36,1.01c-9.86-8.04-19.72-15.91-29.39-24.02
	c-20.08-16.84-39.76-34.13-57.54-53.44c-4.49-4.88-8.68-10.04-12.84-15.21c-10.77-13.35-14.84-28.85-13.83-45.72
	c1.02-17.1,7.24-32.15,19.28-44.49c26.51-27.17,69.43-23.08,90.96,8.59c1.16,1.71,2.25,3.47,3.52,5.43c1.3-2,2.38-3.85,3.63-5.57
	c12.46-17.21,29.05-26.92,50.56-26.4c19.28,0.46,34.78,9.21,45.96,24.71C265.4,95.62,267.82,118.9,258.59,143.35z"/>
</svg>
